<?xml version="1.0" encoding="utf-8" standalone="no"?>
<!DOCTYPE svg PUBLIC "-//W3C//DTD SVG 1.1//EN"
  "http://www.w3.org/Graphics/SVG/1.1/DTD/svg11.dtd">
<svg xmlns:xlink="http://www.w3.org/1999/xlink" width="699.59952pt" height="397.19952pt" viewBox="0 0 699.59952 397.19952" xmlns="http://www.w3.org/2000/svg" version="1.1">
 <metadata>
  <rdf:RDF xmlns:dc="http://purl.org/dc/elements/1.1/" xmlns:cc="http://creativecommons.org/ns#" xmlns:rdf="http://www.w3.org/1999/02/22-rdf-syntax-ns#">
   <cc:Work>
    <dc:type rdf:resource="http://purl.org/dc/dcmitype/StillImage"/>
    <dc:date>2026-06-02T14:31:47.406111</dc:date>
    <dc:format>image/svg+xml</dc:format>
    <dc:creator>
     <cc:Agent>
      <dc:title>Matplotlib v3.10.9, https://matplotlib.org/</dc:title>
     </cc:Agent>
    </dc:creator>
   </cc:Work>
  </rdf:RDF>
 </metadata>
 <defs>
  <style type="text/css">*{stroke-linejoin: round; stroke-linecap: butt}</style>
 </defs>
 <g id="figure_1">
  <g id="patch_1">
   <path d="M 0 397.19952 
L 699.59952 397.19952 
L 699.59952 0 
L 0 0 
z
" style="fill: #ffffff"/>
  </g>
  <g id="axes_1">
   <g id="patch_2">
    <path d="M 131.538962 122.3943 
Q 137.461706 122.3943 142.266416 122.3943 
" clip-path="url(#pac64850a22)" style="fill: none; stroke: #2e3338; stroke-linecap: round"/>
    <path d="M 138.466416 120.4943 
L 142.266416 122.3943 
L 138.466416 124.2943 
z
" clip-path="url(#pac64850a22)" style="fill: #2e3338; stroke: #2e3338; stroke-linecap: round"/>
   </g>
   <g id="patch_3">
    <path d="M 267.151367 122.3943 
Q 273.074111 122.3943 277.878821 122.3943 
" clip-path="url(#pac64850a22)" style="fill: none; stroke: #2e3338; stroke-linecap: round"/>
    <path d="M 274.078821 120.4943 
L 277.878821 122.3943 
L 274.078821 124.2943 
z
" clip-path="url(#pac64850a22)" style="fill: #2e3338; stroke: #2e3338; stroke-linecap: round"/>
   </g>
   <g id="patch_4">
    <path d="M 392.057529 122.3943 
Q 397.980274 122.3943 402.784984 122.3943 
" clip-path="url(#pac64850a22)" style="fill: none; stroke: #2e3338; stroke-linecap: round"/>
    <path d="M 398.984984 120.4943 
L 402.784984 122.3943 
L 398.984984 124.2943 
z
" clip-path="url(#pac64850a22)" style="fill: #2e3338; stroke: #2e3338; stroke-linecap: round"/>
   </g>
   <g id="patch_5">
    <path d="M 513.394944 122.3943 
Q 519.317689 122.3943 524.122399 122.3943 
" clip-path="url(#pac64850a22)" style="fill: none; stroke: #2e3338; stroke-linecap: round"/>
    <path d="M 520.322399 120.4943 
L 524.122399 122.3943 
L 520.322399 124.2943 
z
" clip-path="url(#pac64850a22)" style="fill: #2e3338; stroke: #2e3338; stroke-linecap: round"/>
   </g>
   <g id="patch_6">
    <path d="M 458.646559 159.069649 
Q 458.646559 175.562349 458.646559 190.937016 
" clip-path="url(#pac64850a22)" style="fill: none; stroke: #2e3338; stroke-linecap: round"/>
    <path d="M 460.546559 187.137016 
L 458.646559 190.937016 
L 456.746559 187.137016 
z
" clip-path="url(#pac64850a22)" style="fill: #2e3338; stroke: #2e3338; stroke-linecap: round"/>
   </g>
   <g id="patch_7">
    <path d="M 205.265486 159.069649 
Q 205.265486 175.562349 205.265486 190.937016 
" clip-path="url(#pac64850a22)" style="fill: none; stroke-dasharray: 4,3; stroke-dashoffset: 0; stroke: #2e3338; stroke-linecap: round"/>
    <path d="M 207.165486 187.137016 
L 205.265486 190.937016 
L 203.365486 187.137016 
z
" clip-path="url(#pac64850a22)" style="fill: #2e3338; stroke-dasharray: 4,3; stroke-dashoffset: 0; stroke: #2e3338; stroke-linecap: round"/>
   </g>
   <g id="patch_8">
    <path d="M 458.646559 265.402849 
Q 458.646559 281.895549 458.646559 297.270216 
" clip-path="url(#pac64850a22)" style="fill: none; stroke: #2e3338; stroke-linecap: round"/>
    <path d="M 460.546559 293.470216 
L 458.646559 297.270216 
L 456.746559 293.470216 
z
" clip-path="url(#pac64850a22)" style="fill: #2e3338; stroke: #2e3338; stroke-linecap: round"/>
   </g>
   <g id="patch_9">
    <path d="M 403.898173 335.0607 
Q 335.523067 335.0607 268.265995 335.0607 
" clip-path="url(#pac64850a22)" style="fill: none; stroke: #2e3338; stroke-linecap: round"/>
    <path d="M 272.065995 336.9607 
L 268.265995 335.0607 
L 272.065995 333.1607 
z
" clip-path="url(#pac64850a22)" style="fill: #2e3338; stroke: #2e3338; stroke-linecap: round"/>
   </g>
   <g id="patch_10">
    <path d="M 143.380695 335.0607 
Q 110.977822 335.0607 78.57495 335.0607 
" clip-path="url(#pac64850a22)" style="fill: none; stroke-dasharray: 4,3; stroke-dashoffset: 0; stroke: #2e3338; stroke-linecap: round"/>
   </g>
   <g id="patch_11">
    <path d="M 78.57495 335.0607 
Q 78.57495 247.064404 78.57495 160.186141 
" clip-path="url(#pac64850a22)" style="fill: none; stroke-dasharray: 4,3; stroke-dashoffset: 0; stroke: #2e3338; stroke-linecap: round"/>
    <path d="M 76.67495 163.986141 
L 78.57495 160.186141 
L 80.47495 163.986141 
z
" clip-path="url(#pac64850a22)" style="fill: #2e3338; stroke-dasharray: 4,3; stroke-dashoffset: 0; stroke: #2e3338; stroke-linecap: round"/>
   </g>
   <g id="patch_12">
    <path d="M 267.151367 228.7275 
Q 301.338068 228.7275 335.52477 228.7275 
" clip-path="url(#pac64850a22)" style="fill: none; stroke-dasharray: 4,3; stroke-dashoffset: 0; stroke: #2e3338; stroke-linecap: round"/>
   </g>
   <g id="patch_13">
    <path d="M 335.52477 228.7275 
Q 335.52477 193.898196 335.52477 160.186926 
" clip-path="url(#pac64850a22)" style="fill: none; stroke-dasharray: 4,3; stroke-dashoffset: 0; stroke: #2e3338; stroke-linecap: round"/>
    <path d="M 333.62477 163.986926 
L 335.52477 160.186926 
L 337.42477 163.986926 
z
" clip-path="url(#pac64850a22)" style="fill: #2e3338; stroke-dasharray: 4,3; stroke-dashoffset: 0; stroke: #2e3338; stroke-linecap: round"/>
   </g>
   <g id="patch_14">
    <path d="M 513.392254 228.7275 
Q 543.922335 228.7275 574.452415 228.7275 
" clip-path="url(#pac64850a22)" style="fill: none; stroke-dasharray: 4,3; stroke-dashoffset: 0; stroke: #2e3338; stroke-linecap: round"/>
   </g>
   <g id="patch_15">
    <path d="M 574.452415 228.7275 
Q 574.452415 193.898196 574.452415 160.186926 
" clip-path="url(#pac64850a22)" style="fill: none; stroke-dasharray: 4,3; stroke-dashoffset: 0; stroke: #2e3338; stroke-linecap: round"/>
    <path d="M 572.552415 163.986926 
L 574.452415 160.186926 
L 576.352415 163.986926 
z
" clip-path="url(#pac64850a22)" style="fill: #2e3338; stroke-dasharray: 4,3; stroke-dashoffset: 0; stroke: #2e3338; stroke-linecap: round"/>
   </g>
   <g id="patch_16">
    <path d="M 31.467483 157.8387 
L 125.682417 157.8387 
Q 130.321789 157.8387 130.321789 153.230928 
L 130.321789 91.557672 
Q 130.321789 86.9499 125.682417 86.9499 
L 31.467483 86.9499 
Q 26.828111 86.9499 26.828111 91.557672 
L 26.828111 153.230928 
Q 26.828111 157.8387 31.467483 157.8387 
z
" clip-path="url(#pac64850a22)" style="fill: #fdeded; stroke: #4a5159; stroke-width: 0.85; stroke-linejoin: miter"/>
   </g>
   <g id="patch_17">
    <path d="M 149.23615 157.8387 
L 261.294822 157.8387 
Q 265.934194 157.8387 265.934194 153.230928 
L 265.934194 91.557672 
Q 265.934194 86.9499 261.294822 86.9499 
L 149.23615 86.9499 
Q 144.596779 86.9499 144.596779 91.557672 
L 144.596779 153.230928 
Q 144.596779 157.8387 149.23615 157.8387 
z
" clip-path="url(#pac64850a22)" style="fill: #f1ecfa; stroke: #4a5159; stroke-width: 0.85; stroke-linejoin: miter"/>
   </g>
   <g id="patch_18">
    <path d="M 284.848555 157.8387 
L 386.200984 157.8387 
Q 390.840356 157.8387 390.840356 153.230928 
L 390.840356 91.557672 
Q 390.840356 86.9499 386.200984 86.9499 
L 284.848555 86.9499 
Q 280.209184 86.9499 280.209184 91.557672 
L 280.209184 153.230928 
Q 280.209184 157.8387 284.848555 157.8387 
z
" clip-path="url(#pac64850a22)" style="fill: #fdeded; stroke: #4a5159; stroke-width: 0.85; stroke-linejoin: miter"/>
   </g>
   <g id="patch_19">
    <path d="M 409.754718 157.8387 
L 507.538399 157.8387 
Q 512.177771 157.8387 512.177771 153.230928 
L 512.177771 91.557672 
Q 512.177771 86.9499 507.538399 86.9499 
L 409.754718 86.9499 
Q 405.115346 86.9499 405.115346 91.557672 
L 405.115346 153.230928 
Q 405.115346 157.8387 409.754718 157.8387 
z
" clip-path="url(#pac64850a22)" style="fill: #fdeded; stroke: #4a5159; stroke-width: 0.85; stroke-linejoin: miter"/>
   </g>
   <g id="patch_20">
    <path d="M 531.092133 157.8387 
L 657.425794 157.8387 
Q 662.065166 157.8387 662.065166 153.230928 
L 662.065166 91.557672 
Q 662.065166 86.9499 657.425794 86.9499 
L 531.092133 86.9499 
Q 526.452761 86.9499 526.452761 91.557672 
L 526.452761 153.230928 
Q 526.452761 157.8387 531.092133 157.8387 
z
" clip-path="url(#pac64850a22)" style="fill: #e8f5f7; stroke: #4a5159; stroke-width: 0.85; stroke-linejoin: miter"/>
   </g>
   <g id="patch_21">
    <path d="M 149.23615 264.1719 
L 261.294822 264.1719 
Q 265.934194 264.1719 265.934194 259.564128 
L 265.934194 197.890872 
Q 265.934194 193.2831 261.294822 193.2831 
L 149.23615 193.2831 
Q 144.596779 193.2831 144.596779 197.890872 
L 144.596779 259.564128 
Q 144.596779 264.1719 149.23615 264.1719 
z
" clip-path="url(#pac64850a22)" style="fill: #fff3d4; stroke: #4a5159; stroke-width: 0.85; stroke-linejoin: miter"/>
   </g>
   <g id="patch_22">
    <path d="M 409.754718 264.1719 
L 507.538399 264.1719 
Q 512.177771 264.1719 512.177771 259.564128 
L 512.177771 197.890872 
Q 512.177771 193.2831 507.538399 193.2831 
L 409.754718 193.2831 
Q 405.115346 193.2831 405.115346 197.890872 
L 405.115346 259.564128 
Q 405.115346 264.1719 409.754718 264.1719 
z
" clip-path="url(#pac64850a22)" style="fill: #f1ecfa; stroke: #4a5159; stroke-width: 0.85; stroke-linejoin: miter"/>
   </g>
   <g id="patch_23">
    <path d="M 149.23615 370.5051 
L 261.294822 370.5051 
Q 265.934194 370.5051 265.934194 365.897328 
L 265.934194 304.224072 
Q 265.934194 299.6163 261.294822 299.6163 
L 149.23615 299.6163 
Q 144.596779 299.6163 144.596779 304.224072 
L 144.596779 365.897328 
Q 144.596779 370.5051 149.23615 370.5051 
z
" clip-path="url(#pac64850a22)" style="fill: #eaf6ef; stroke: #4a5159; stroke-width: 0.85; stroke-linejoin: miter"/>
   </g>
   <g id="patch_24">
    <path d="M 409.754718 370.5051 
L 507.538399 370.5051 
Q 512.177771 370.5051 512.177771 365.897328 
L 512.177771 304.224072 
Q 512.177771 299.6163 507.538399 299.6163 
L 409.754718 299.6163 
Q 405.115346 299.6163 405.115346 304.224072 
L 405.115346 365.897328 
Q 405.115346 370.5051 409.754718 370.5051 
z
" clip-path="url(#pac64850a22)" style="fill: #f1ecfa; stroke: #4a5159; stroke-width: 0.85; stroke-linejoin: miter"/>
   </g>
   <g id="text_1">
    <text style="font-weight: 700; font-size: 13.5px; font-family: 'DejaVu Sans'; text-anchor: start" x="25.043737" y="31.635651" transform="rotate(-0 25.043737 31.635651)">Diagnosis and Repair Loop</text>
   </g>
   <g id="text_2">
    <text style="font-size: 7.8px; font-family: 'DejaVu Sans'; text-anchor: start; fill: #6d747c" x="25.043737" y="49.988957" transform="rotate(-0 25.043737 49.988957)">Evidence flows render → critic → metrics → repair, with fallback kept strictly diagnostic. No edge crosses another node.</text>
   </g>
   <g id="text_3">
    <text style="font-weight: 700; font-size: 8.8px; font-family: 'DejaVu Sans'; text-anchor: middle; fill: #1f2328" x="78.57495" y="114.047452" transform="rotate(-0 78.57495 114.047452)">Candidate</text>
   </g>
   <g id="text_4">
    <text style="font-size: 7px; font-family: 'DejaVu Sans'; fill: #2e3338" transform="translate(62.896044 133.928689)">scene.py</text>
    <text style="font-size: 7px; font-family: 'DejaVu Sans'; fill: #2e3338" transform="translate(56.819716 141.66078)">or diff repair</text>
   </g>
   <g id="text_5">
    <text style="font-weight: 700; font-size: 8.8px; font-family: 'DejaVu Sans'; text-anchor: middle; fill: #1f2328" x="205.265486" y="114.047452" transform="rotate(-0 205.265486 114.047452)">Static Gates</text>
   </g>
   <g id="text_6">
    <text style="font-size: 7px; font-family: 'DejaVu Sans'; fill: #2e3338" transform="translate(180.809236 129.770613)">scene_verifier</text>
    <text style="font-size: 7px; font-family: 'DejaVu Sans'; fill: #2e3338" transform="translate(173.498611 137.697391)">contract_validator</text>
    <text style="font-size: 7px; font-family: 'DejaVu Sans'; fill: #2e3338" transform="translate(179.840174 145.624169)">scene_ir verify</text>
   </g>
   <g id="text_7">
    <text style="font-weight: 700; font-size: 8.8px; font-family: 'DejaVu Sans'; text-anchor: middle; fill: #1f2328" x="335.52477" y="114.047452" transform="rotate(-0 335.52477 114.047452)">Preview</text>
   </g>
   <g id="text_8">
    <text style="font-size: 7px; font-family: 'DejaVu Sans'; fill: #2e3338" transform="translate(301.138364 133.928689)">sampled keyframes</text>
    <text style="font-size: 7px; font-family: 'DejaVu Sans'; fill: #2e3338" transform="translate(305.510629 141.66078)">motion · visibility</text>
   </g>
   <g id="text_9">
    <text style="font-weight: 700; font-size: 8.8px; font-family: 'DejaVu Sans'; text-anchor: middle; fill: #1f2328" x="458.646559" y="114.047452" transform="rotate(-0 458.646559 114.047452)">Render</text>
   </g>
   <g id="text_10">
    <text style="font-size: 7px; font-family: 'DejaVu Sans'; fill: #2e3338" transform="translate(439.937418 133.928689)">full frames</text>
    <text style="font-size: 7px; font-family: 'DejaVu Sans'; fill: #2e3338" transform="translate(429.640856 141.66078)">or fallback video</text>
   </g>
   <g id="text_11">
    <text style="font-weight: 700; font-size: 8.8px; font-family: 'DejaVu Sans'; text-anchor: middle; fill: #1f2328" x="594.258964" y="114.047452" transform="rotate(-0 594.258964 114.047452)">Best Selection</text>
   </g>
   <g id="text_12">
    <text style="font-size: 7px; font-family: 'DejaVu Sans'; fill: #2e3338" transform="translate(570.425604 129.9653)">hard isolation</text>
    <text style="font-size: 7px; font-family: 'DejaVu Sans'; fill: #2e3338" transform="translate(561.460683 137.697391)">semantic tie-break</text>
    <text style="font-size: 7px; font-family: 'DejaVu Sans'; fill: #2e3338" transform="translate(574.215448 145.429481)">final_status</text>
   </g>
   <g id="text_13">
    <text style="font-weight: 700; font-size: 8.8px; font-family: 'DejaVu Sans'; text-anchor: middle; fill: #1f2328" x="205.265486" y="220.380652" transform="rotate(-0 205.265486 220.380652)">Fallback</text>
   </g>
   <g id="text_14">
    <text style="font-size: 7px; font-family: 'DejaVu Sans'; fill: #2e3338" transform="translate(174.443064 240.164545)">compiled scaffold</text>
    <text style="font-size: 7px; font-family: 'DejaVu Sans'; fill: #2e3338" transform="translate(173.097205 247.896636)">fallback_degraded</text>
   </g>
   <g id="text_15">
    <text style="font-weight: 700; font-size: 8.8px; font-family: 'DejaVu Sans'; text-anchor: middle; fill: #1f2328" x="458.646559" y="220.380652" transform="rotate(-0 458.646559 220.380652)">Critic Evidence</text>
   </g>
   <g id="text_16">
    <text style="font-size: 7px; font-family: 'DejaVu Sans'; fill: #2e3338" transform="translate(431.213668 236.395844)">member usable</text>
    <text style="font-size: 7px; font-family: 'DejaVu Sans'; fill: #2e3338" transform="translate(432.576481 244.127934)">partial success</text>
    <text style="font-size: 7px; font-family: 'DejaVu Sans'; fill: #2e3338" transform="translate(437.352887 251.860025)">block / warn</text>
   </g>
   <g id="text_17">
    <text style="font-weight: 700; font-size: 8.8px; font-family: 'DejaVu Sans'; text-anchor: middle; fill: #1f2328" x="205.265486" y="326.713852" transform="rotate(-0 205.265486 326.713852)">Repair Plan</text>
   </g>
   <g id="text_18">
    <text style="font-size: 7px; font-family: 'DejaVu Sans'; fill: #2e3338" transform="translate(180.72283 342.6317)">max 6 targets</text>
    <text style="font-size: 7px; font-family: 'DejaVu Sans'; fill: #2e3338" transform="translate(181.206267 350.363791)">source_report</text>
    <text style="font-size: 7px; font-family: 'DejaVu Sans'; fill: #2e3338" transform="translate(185.778689 358.290569)">minimal fix</text>
   </g>
   <g id="text_19">
    <text style="font-weight: 700; font-size: 8.8px; font-family: 'DejaVu Sans'; text-anchor: middle; fill: #1f2328" x="458.646559" y="326.713852" transform="rotate(-0 458.646559 326.713852)">Static Evidence</text>
   </g>
   <g id="text_20">
    <text style="font-size: 7px; font-family: 'DejaVu Sans'; fill: #2e3338" transform="translate(429.846481 342.6317)">concept_metrics</text>
    <text style="font-size: 7px; font-family: 'DejaVu Sans'; fill: #2e3338" transform="translate(429.668199 350.558478)">auto spec status</text>
    <text style="font-size: 7px; font-family: 'DejaVu Sans'; fill: #2e3338" transform="translate(443.565387 358.290569)">cross-ref</text>
   </g>
   <g id="text_21">
    <g id="patch_25">
     <path d="M 427.657152 180.823462 
L 489.635965 180.823462 
L 489.635965 170.298337 
L 427.657152 170.298337 
z
" style="fill: #ffffff"/>
    </g>
    <text style="font-size: 6.8px; font-family: 'DejaVu Sans'; text-anchor: middle; fill: #6d747c" x="458.646559" y="177.437275" transform="rotate(-0 458.646559 177.437275)">frames + reports</text>
   </g>
   <g id="text_22">
    <g id="patch_26">
     <path d="M 186.841736 180.823462 
L 223.689236 180.823462 
L 223.689236 170.298337 
L 186.841736 170.298337 
z
" style="fill: #ffffff"/>
    </g>
    <text style="font-size: 6.8px; font-family: 'DejaVu Sans'; text-anchor: middle; fill: #6d747c" x="205.265486" y="177.437275" transform="rotate(-0 205.265486 177.437275)">fatal path</text>
   </g>
   <g id="text_23">
    <g id="patch_27">
     <path d="M 442.024277 287.156662 
L 475.26884 287.156662 
L 475.26884 276.631537 
L 442.024277 276.631537 
z
" style="fill: #ffffff"/>
    </g>
    <text style="font-size: 6.8px; font-family: 'DejaVu Sans'; text-anchor: middle; fill: #6d747c" x="458.646559" y="283.770475" transform="rotate(-0 458.646559 283.770475)">cross-ref</text>
   </g>
   <g id="text_24">
    <g id="patch_28">
     <path d="M 310.365301 340.323262 
L 360.684239 340.323262 
L 360.684239 329.798137 
L 310.365301 329.798137 
z
" style="fill: #ffffff"/>
    </g>
    <text style="font-size: 6.8px; font-family: 'DejaVu Sans'; text-anchor: middle; fill: #6d747c" x="335.52477" y="336.937075" transform="rotate(-0 335.52477 336.937075)">repair targets</text>
   </g>
   <g id="text_25">
    <g id="patch_29">
     <path d="M 68.446669 250.826152 
L 88.703231 250.826152 
L 88.703231 240.301027 
L 68.446669 240.301027 
z
" style="fill: #ffffff"/>
    </g>
    <text style="font-size: 6.8px; font-family: 'DejaVu Sans'; text-anchor: middle; fill: #6d747c" x="78.57495" y="247.439965" transform="rotate(-0 78.57495 247.439965)">retry</text>
   </g>
   <g id="text_26">
    <g id="patch_30">
     <path d="M 318.109332 197.659552 
L 352.940207 197.659552 
L 352.940207 187.134427 
L 318.109332 187.134427 
z
" style="fill: #ffffff"/>
    </g>
    <text style="font-size: 6.8px; font-family: 'DejaVu Sans'; text-anchor: middle; fill: #6d747c" x="335.52477" y="194.273365" transform="rotate(-0 335.52477 194.273365)">diagnose</text>
   </g>
   <g id="text_27">
    <g id="patch_31">
     <path d="M 551.602821 197.754115 
L 597.302009 197.754115 
L 597.302009 187.039865 
L 551.602821 187.039865 
z
" style="fill: #ffffff"/>
    </g>
    <text style="font-size: 6.8px; font-family: 'DejaVu Sans'; text-anchor: middle; fill: #6d747c" x="574.452415" y="194.178802" transform="rotate(-0 574.452415 194.178802)">failure_class</text>
   </g>
  </g>
 </g>
 <defs>
  <clipPath id="pac64850a22">
   <rect x="7.2" y="7.2" width="685.19952" height="382.79952"/>
  </clipPath>
 </defs>
</svg>
